<svg xmlns="http://www.w3.org/2000/svg" xmlns:xlink="http://www.w3.org/1999/xlink" width="183" height="205" viewBox="0 0 183 205">
  <defs>
    <filter id="Caminho_19" x="0" y="0" width="183" height="205" filterUnits="userSpaceOnUse">
      <feOffset dy="3" input="SourceAlpha"/>
      <feGaussianBlur stdDeviation="3" result="blur"/>
      <feFlood flood-opacity="0.161"/>
      <feComposite operator="in" in2="blur"/>
      <feComposite in="SourceGraphic"/>
    </filter>
  </defs>
  <g id="Grupo_23" data-name="Grupo 23" transform="translate(-77 -230)">
    <g transform="matrix(1, 0, 0, 1, 77, 230)" filter="url(#Caminho_19)">
      <g id="Caminho_19-2" data-name="Caminho 19" transform="translate(9 6)" fill="#fff">
        <path d="M 136 185.5 L 29 185.5 C 25.28687477111816 185.5 21.68560028076172 184.7731323242188 18.29622459411621 183.3395233154297 C 15.02172470092773 181.9545288085938 12.08059978485107 179.9714813232422 9.554574966430664 177.4454498291016 C 7.028524875640869 174.9194030761719 5.045475006103516 171.9783020019531 3.660475015640259 168.7037963867188 C 2.226900100708008 165.3144226074219 1.5 161.7131500244141 1.5 158 L 1.5 29 C 1.5 25.28687477111816 2.226900100708008 21.68560028076172 3.660475015640259 18.29622459411621 C 5.045475006103516 15.02172470092773 7.028524875640869 12.08059978485107 9.554574966430664 9.554574966430664 C 12.08059978485107 7.028524875640869 15.02172470092773 5.045475006103516 18.29622459411621 3.660475015640259 C 21.68560028076172 2.226900100708008 25.28687477111816 1.5 29 1.5 L 136 1.5 C 139.7131500244141 1.5 143.3144226074219 2.226900100708008 146.7037963867188 3.660475015640259 C 149.9783020019531 5.045475006103516 152.9194030761719 7.028524875640869 155.4454498291016 9.554574966430664 C 157.9714813232422 12.08059978485107 159.9545288085938 15.02172470092773 161.3395233154297 18.29622459411621 C 162.7731323242188 21.68560028076172 163.5 25.28687477111816 163.5 29 L 163.5 158 C 163.5 161.7131500244141 162.7731323242188 165.3144226074219 161.3395233154297 168.7037963867188 C 159.9545288085938 171.9783020019531 157.9714813232422 174.9194030761719 155.4454498291016 177.4454498291016 C 152.9194030761719 179.9714813232422 149.9783020019531 181.9545288085938 146.7037963867188 183.3395233154297 C 143.3144226074219 184.7731323242188 139.7131500244141 185.5 136 185.5 Z" stroke="none"/>
        <path d="M 29 3 C 25.48870849609375 3 22.08403015136719 3.687026977539062 18.88055419921875 5.041976928710938 C 15.78483581542969 6.351348876953125 13.00396728515625 8.2264404296875 10.61520385742188 10.61520385742188 C 8.2264404296875 13.00396728515625 6.351348876953125 15.78483581542969 5.041976928710938 18.88055419921875 C 3.687026977539062 22.08403015136719 3 25.48870849609375 3 29 L 3 158 C 3 161.5112915039062 3.687026977539062 164.9159698486328 5.041976928710938 168.1194458007812 C 6.351348876953125 171.2151641845703 8.2264404296875 173.9960327148438 10.61520385742188 176.3847961425781 C 13.00396728515625 178.7735595703125 15.78483581542969 180.6486511230469 18.88055419921875 181.9580230712891 C 22.08403015136719 183.3129730224609 25.48870849609375 184 29 184 L 136 184 C 139.5112915039062 184 142.9159698486328 183.3129730224609 146.1194458007812 181.9580230712891 C 149.2151641845703 180.6486511230469 151.9960327148438 178.7735595703125 154.3847961425781 176.3847961425781 C 156.7735595703125 173.9960327148438 158.6486511230469 171.2151641845703 159.9580230712891 168.1194458007812 C 161.3129730224609 164.9159698486328 162 161.5112915039062 162 158 L 162 29 C 162 25.48870849609375 161.3129730224609 22.08403015136719 159.9580230712891 18.88055419921875 C 158.6486511230469 15.78483581542969 156.7735595703125 13.00396728515625 154.3847961425781 10.61520385742188 C 151.9960327148438 8.2264404296875 149.2151641845703 6.351348876953125 146.1194458007812 5.041976928710938 C 142.9159698486328 3.687026977539062 139.5112915039062 3 136 3 L 29 3 M 29 0 L 136 0 C 152.0162658691406 0 165 12.98373413085938 165 29 L 165 158 C 165 174.0162658691406 152.0162658691406 187 136 187 L 29 187 C 12.98373413085938 187 0 174.0162658691406 0 158 L 0 29 C 0 12.98373413085938 12.98373413085938 0 29 0 Z" stroke="none" fill="#fff"/>
      </g>
    </g>
    <g id="Icon_ionic-md-finger-print" data-name="Icon ionic-md-finger-print" transform="translate(101.25 254.032)">
      <path id="Caminho_19-3" data-name="Caminho 19" d="M9.109,45.525a4.58,4.58,0,0,1-3.988-6.864c5.818-9.806,23.5-32.719,62.137-32.719,16.735,0,31.412,4.445,43.6,13.205A73.976,73.976,0,0,1,129.2,38.4a4.542,4.542,0,0,1-1.209,6.341,4.649,4.649,0,0,1-6.407-1.209c-4.87-7.06-19.645-28.5-54.325-28.5-33.863,0-49.16,19.743-54.162,28.208A4.512,4.512,0,0,1,9.109,45.525Z" transform="translate(0 13.469)" fill="#00f6ff"/>
      <path id="Caminho_20" data-name="Caminho 20" d="M82.656,121.85a4.555,4.555,0,0,1-1.144-.131C53.5,114.692,43.04,86.385,42.615,85.209l-.065-.261c-.229-.817-5.851-20.233,2.778-31.608,3.955-5.2,9.969-7.845,17.912-7.845,7.387,0,12.715,2.321,16.376,7.126,3.007,3.922,4.217,8.76,5.393,13.434,2.451,9.708,4.217,14.807,14.415,15.33a10.527,10.527,0,0,0,9.087-4.674c4.511-6.145,5.3-16.18,1.9-25.005-4.38-11.44-19.873-32.981-47.2-32.981A47.919,47.919,0,0,0,32.221,29.642,50.3,50.3,0,0,0,16.727,52.457c-5.034,15.951,1.569,41.022,1.634,41.25a4.534,4.534,0,0,1-3.269,5.557,4.642,4.642,0,0,1-5.655-3.236C9.144,94.884,2.084,68.146,7.9,49.711A58.093,58.093,0,0,1,100.372,23.1,63.771,63.771,0,0,1,119,48.4c4.511,11.767,3.3,24.972-3.073,33.6-4.249,5.753-10.3,8.76-17,8.433-17.455-.883-20.592-13.205-22.881-22.194C73.7,59.027,72.2,54.581,63.207,54.581c-4.936,0-8.4,1.373-10.558,4.217-2.942,3.89-3.171,9.969-2.844,14.382a46.942,46.942,0,0,0,1.536,9.087c.719,1.83,10.067,25.005,32.458,30.627a4.541,4.541,0,0,1,3.334,5.524A4.64,4.64,0,0,1,82.656,121.85Z" transform="translate(4.051 26.835)" fill="#00f6ff"/>
      <path id="Caminho_21" data-name="Caminho 21" d="M33.038,106.007a4.654,4.654,0,0,1-3.367-1.438c-11.211-11.9-17.553-25.2-19.939-41.839v-.1c-1.34-11.015.621-26.607,10.231-37.328,7.093-7.91,17.062-11.931,29.581-11.931,14.807,0,26.443,6.962,33.7,20.1a56.5,56.5,0,0,1,6.341,19.448,4.617,4.617,0,0,1-9.185.948h0a47.315,47.315,0,0,0-5.393-16.245c-5.622-10.035-14.186-15.134-25.5-15.134-9.773,0-17.422,2.974-22.684,8.858-7.583,8.466-9.054,21.508-8.008,30.137C20.911,76.2,26.5,87.9,36.372,98.358a4.521,4.521,0,0,1-.229,6.439A4.636,4.636,0,0,1,33.038,106.007Z" transform="translate(17.714 40.587)" fill="#00f6ff"/>
      <path id="Caminho_22" data-name="Caminho 22" d="M56.792,63.895c-9.806,0-18.141-2.746-24.809-8.2-13.4-10.917-14.905-28.7-14.97-29.451a4.607,4.607,0,0,1,9.185-.719c.033.261,1.373,14.807,11.7,23.175,6.112,4.936,14.284,6.9,24.351,5.753a4.594,4.594,0,0,1,5.1,4.02A4.539,4.539,0,0,1,63.3,63.5,55.946,55.946,0,0,1,56.792,63.895Z" transform="translate(45.604 69.592)" fill="#00f6ff"/>
      <path id="Caminho_23" data-name="Caminho 23" d="M96.622,12.252c-3.824-2.517-17.389-10-42.885-10-26.77,0-40.368,8.27-43.375,10.362a3.568,3.568,0,0,0-.556.425.1.1,0,0,1-.065.033h0a4.539,4.539,0,0,0,3.073,7.943,4.669,4.669,0,0,0,2.68-.85h0l-.033.033c.131-.1,11.865-8.825,38.276-8.825s38.145,8.76,38.276,8.825l-.033-.033.065-.065a4.58,4.58,0,1,0,4.576-7.845Z" transform="translate(13.52)" fill="#00f6ff"/>
    </g>
  </g>
</svg>
