<svg xmlns="http://www.w3.org/2000/svg" width="225" height="223" viewBox="0 0 225 223">
  <g id="Grupo_6" data-name="Grupo 6" transform="translate(-99 -414)">
    <g id="Caminho_15" data-name="Caminho 15" transform="translate(99 414)" fill="none">
      <path d="M112.5,0C174.632,0,225,49.92,225,111.5S174.632,223,112.5,223,0,173.08,0,111.5,50.368,0,112.5,0Z" stroke="none"/>
      <path d="M 112.5 10 C 55.98130798339844 10 10 55.53269958496094 10 111.5 C 10 167.4673156738281 55.98130798339844 213 112.5 213 C 169.0186920166016 213 215 167.4673156738281 215 111.5 C 215 55.53269958496094 169.0186920166016 10 112.5 10 M 112.5 0 C 174.6320343017578 0 225 49.92027282714844 225 111.5 C 225 173.0797271728516 174.6320343017578 223 112.5 223 C 50.36796569824219 223 0 173.0797271728516 0 111.5 C 0 49.92027282714844 50.36796569824219 0 112.5 0 Z" stroke="none" fill="#00f6ff"/>
    </g>
    <g id="Caminho_17" data-name="Caminho 17" transform="translate(114 429)" fill="none">
      <path d="M97.5,0C151.348,0,195,43.2,195,96.5S151.348,193,97.5,193,0,149.8,0,96.5,43.652,0,97.5,0Z" stroke="none"/>
      <path d="M 97.5 7 C 47.59812927246094 7 7 47.1495361328125 7 96.5 C 7 145.8504638671875 47.59812927246094 186 97.5 186 C 147.4018707275391 186 188 145.8504638671875 188 96.5 C 188 47.1495361328125 147.4018707275391 7 97.5 7 M 97.5 0 C 151.3477478027344 0 195 43.20452880859375 195 96.5 C 195 149.7954711914062 151.3477478027344 193 97.5 193 C 43.65225219726562 193 0 149.7954711914062 0 96.5 C 0 43.20452880859375 43.65225219726562 0 97.5 0 Z" stroke="none" fill="#00f6ff"/>
    </g>
    <g id="Caminho_16" data-name="Caminho 16" transform="translate(131 446)" fill="#fff">
      <path d="M 81 158 C 70.33113098144531 158 59.98265075683594 155.9367980957031 50.2420654296875 151.8677673339844 C 45.56082534790039 149.9122009277344 41.04573822021484 147.4917449951172 36.82219696044922 144.6736145019531 C 32.63874053955078 141.8822021484375 28.70482635498047 138.6764984130859 25.1297607421875 135.1455688476562 C 21.55510902404785 131.6150665283203 18.30991363525391 127.7304382324219 15.48428249359131 123.5995864868164 C 12.63223934173584 119.4301300048828 10.18276119232178 114.9730834960938 8.203891754150391 110.3522644042969 C 6.188804149627686 105.6468887329102 4.641195774078369 100.7228927612305 3.604043483734131 95.717041015625 C 2.539673805236816 90.57982635498047 2 85.2918701171875 2 80 C 2 74.7081298828125 2.539673805236816 69.42017364501953 3.604043483734131 64.282958984375 C 4.641195774078369 59.27710723876953 6.188804149627686 54.35310745239258 8.203891754150391 49.64773941040039 C 10.18276119232178 45.02691268920898 12.63223934173584 40.56986999511719 15.48428249359131 36.40041351318359 C 18.30991363525391 32.26956558227539 21.55510902404785 28.38493537902832 25.1297607421875 24.85443496704102 C 28.70482635498047 21.32349967956543 32.63874053955078 18.1178035736084 36.82219696044922 15.32639122009277 C 41.04573822021484 12.50826072692871 45.56082534790039 10.08780479431152 50.2420654296875 8.13223934173584 C 59.98265075683594 4.063195705413818 70.33113098144531 2 81 2 C 91.66886901855469 2 102.0173492431641 4.063195705413818 111.7579345703125 8.13223934173584 C 116.4391708374023 10.08780479431152 120.9542617797852 12.50826072692871 125.1778030395508 15.32639122009277 C 129.3612670898438 18.1178035736084 133.2951812744141 21.32349967956543 136.8702392578125 24.85443496704102 C 140.4448852539062 28.38493537902832 143.6900939941406 32.26956558227539 146.5157165527344 36.40041351318359 C 149.3677673339844 40.56986999511719 151.8172454833984 45.02691268920898 153.7961120605469 49.64773941040039 C 155.8112030029297 54.35310745239258 157.3588104248047 59.27710723876953 158.3959503173828 64.282958984375 C 159.4603271484375 69.42017364501953 160 74.7081298828125 160 80 C 160 85.2918701171875 159.4603271484375 90.57982635498047 158.3959503173828 95.717041015625 C 157.3588104248047 100.7228927612305 155.8112030029297 105.6468887329102 153.7961120605469 110.3522644042969 C 151.8172454833984 114.9730834960938 149.3677673339844 119.4301300048828 146.5157165527344 123.5995864868164 C 143.6900939941406 127.7304382324219 140.4448852539062 131.6150665283203 136.8702392578125 135.1455688476562 C 133.2951812744141 138.6764984130859 129.3612670898438 141.8822021484375 125.1778030395508 144.6736145019531 C 120.9542617797852 147.4917449951172 116.4391708374023 149.9122009277344 111.7579345703125 151.8677673339844 C 102.0173492431641 155.9367980957031 91.66886901855469 158 81 158 Z" stroke="none"/>
      <path d="M 81 4 C 70.59716796875 4 60.50809478759766 6.011184692382812 51.01297760009766 9.977691650390625 C 46.45009613037109 11.88380432128906 42.04911804199219 14.24308776855469 37.93225860595703 16.99005126953125 C 33.85443115234375 19.71098327636719 30.01988220214844 22.835693359375 26.53514099121094 26.27740478515625 C 23.05128479003906 29.71826171875 19.88862609863281 33.50402069091797 17.13502502441406 37.52957153320312 C 14.35638427734375 41.59173583984375 11.97007751464844 45.93376159667969 10.04237365722656 50.43507385253906 C 6.032958984375 59.79740142822266 4 69.74449920654297 4 80 C 4 90.25550079345703 6.032958984375 100.2025909423828 10.04237365722656 109.5649261474609 C 11.97007751464844 114.0662384033203 14.35638427734375 118.4082641601562 17.13502502441406 122.4704284667969 C 19.88862609863281 126.4959716796875 23.05128479003906 130.28173828125 26.53514099121094 133.7225952148438 C 30.01988220214844 137.164306640625 33.85443115234375 140.2890319824219 37.93225860595703 143.0099487304688 C 42.04911804199219 145.7568969726562 46.45009613037109 148.1161956787109 51.01297760009766 150.0223083496094 C 60.50809478759766 153.9888153076172 70.59716796875 156 81 156 C 91.40283203125 156 101.4919052124023 153.9888153076172 110.9870223999023 150.0223083496094 C 115.5499038696289 148.1161956787109 119.9508819580078 145.7568969726562 124.0677337646484 143.0099487304688 C 128.1455688476562 140.2890319824219 131.9801177978516 137.164306640625 135.4648590087891 133.7225952148438 C 138.9487152099609 130.28173828125 142.1113891601562 126.4959716796875 144.8649749755859 122.4704284667969 C 147.6436157226562 118.4082641601562 150.0299224853516 114.0662384033203 151.9576110839844 109.5649261474609 C 155.967041015625 100.2025909423828 158 90.25550079345703 158 80 C 158 69.74449920654297 155.967041015625 59.79740142822266 151.9576110839844 50.43507385253906 C 150.0299224853516 45.93376159667969 147.6436157226562 41.59173583984375 144.8649749755859 37.52957153320312 C 142.1113891601562 33.50402069091797 138.9487152099609 29.71826171875 135.4648590087891 26.27740478515625 C 131.9801177978516 22.835693359375 128.1455688476562 19.71098327636719 124.0677337646484 16.99005126953125 C 119.9508819580078 14.24308776855469 115.5499038696289 11.88380432128906 110.9870223999023 9.977691650390625 C 101.4919052124023 6.011184692382812 91.40283203125 4 81 4 M 81 0 C 125.7350769042969 0 162 35.81721496582031 162 80 C 162 124.1827850341797 125.7350769042969 160 81 160 C 36.26493072509766 160 0 124.1827850341797 0 80 C 0 35.81721496582031 36.26493072509766 0 81 0 Z" stroke="none" fill="#00f6ff"/>
    </g>
  </g>
</svg>
