<svg xmlns="http://www.w3.org/2000/svg" xmlns:xlink="http://www.w3.org/1999/xlink" width="428" height="106.512" viewBox="0 0 428 106.512">
  <defs>
    <linearGradient id="linear-gradient" x1="0.5" x2="0.5" y2="1" gradientUnits="objectBoundingBox">
      <stop offset="0" stop-color="#6594cc" stop-opacity="0.341"/>
      <stop offset="1" stop-color="#fff" stop-opacity="0.8"/>
    </linearGradient>
  </defs>
  <g id="Grupo_3" data-name="Grupo 3" transform="translate(428 0) rotate(90)">
    <path id="Caminho_3" data-name="Caminho 3" d="M2715.625,37.547s-11.7,10.861-4.31,38.788,27.091,23.893,27.091,23.893-9.543,8.689-7.081,31.341,11.7,26.686,11.7,26.686-6.773,1.241-8,9.93,3.386,12.412,3.386,12.412-7.081,4.344-5.542,14.274,10.159,9.93,10.159,9.93-9,10.085-10.159,19.859,5.542,19.239,5.542,19.239-6.465.31-8.312,9,2.771,13.964,2.771,13.964-15.393,4.034-16.316,31.03,13.546,36.616,13.546,36.616-21.55,9.619-28.323,33.513,4.618,45.925,4.618,45.925l8,13.964h91.74V0l-90.509.31Z" transform="translate(-2699.621)" fill="url(#linear-gradient)"/>
    <path id="Caminho_2" data-name="Caminho 2" d="M2717.489,0s-1.234,24.176,3.839,38.322,16.451,18.262,16.451,18.262-3.334,6.877-2.444,12.8,6,10.892,6,10.892,0,18.354,4.8,29.044a25.937,25.937,0,0,0,14.407,13.715s-2.1,10.085,0,15.329,8.4,5.648,8.4,5.648-12.006,20.775-12.006,38.726,12.006,33.078,12.006,33.078-3.4,10.085-2.4,16.539a13.338,13.338,0,0,0,6.4,9.278s-6.4,8.37-6.4,14.522,6.4,10.085,6.4,10.085-7.2,8.169-8.8,15.732,2.4,14.522,2.4,14.522-10.205,10.992-11.606,22.59,6,23.8,6,23.8-10.405,6.454-13.207,15.329,2,20.17,2,20.17-18.409,2.925-28.014,15.329S2711.322,428,2711.322,428l100.052-.807V0Z" transform="translate(-2706.711)" fill="#fff"/>
    <path id="Caminho_4" data-name="Caminho 4" d="M2753.215,121.287a41.732,41.732,0,0,0-4.19,24.641c2.118,13.5,16.759,21.331,16.759,21.331l7.525,18.583s-2.617,9.168,0,14.917,10.467,8.08,10.467,8.08l9.235,4.04s.308,78.313,0,81.421-4.31,3.108-4.31,3.108-18.779,14.917-20.626,43.818,11.083,45.372,11.083,45.372-7.85,3.108-11.083,9.634-1.847,16.471-1.847,16.471-11.083,7.691-14.777,18.957,0,26.1,0,26.1V476.1l56.645-.622,1.231-359.867Z" transform="translate(-2729.292 -70.046)" fill="rgba(255,255,255,0.4)"/>
  </g>
</svg>
